# xmcd
#
# Track frame offsets: 
#        150
#        16337
#        26477
#        40600
#        46827
#        59715
#        72757
#        84820
#        91787
#        106520
#        118990
#        128787
#        134067
#        155432
#        170225
#        187975
#        194062
#        218137
#        233105
#        248267
#        254460
#        270497
#        289662
#        307872
#
# Disc length: 4205 seconds
#
# Revision: 0
# Processed by: cddbd v1.5.2PL0 Copyright (c) Steve Scherf et al.
# Submitted via: ExactAudioCopy v0.99pb4
#
DISCID=46106b18
DTITLE=Oxford Story Tree - Oxford Story Tree L4 (Orange Books)
DYEAR=1999
DGENRE=Education
TTITLE0=In the Garden (Pages 01 to 07)
TTITLE1=In the Garden (Pages 08 to 15)
TTITLE2=In the Garden (Pages 16 to 24)
TTITLE3=In the Garden (Listen and Repeat)
TTITLE4=The Outing (Pages 01 to 07)
TTITLE5=The Outing (Pages 08 to 15)
TTITLE6=The Outing (Pages 16 to 24)
TTITLE7=The Outing (Listen and Repeat)
TTITLE8=Land of the Dinosaurs (Pages 01 to 09)
TTITLE9=Land of the Dinosaurs (Pages 10 to 17)
TTITLE10=Land of the Dinosaurs (Pages 18 to 24)
TTITLE11=Land of the Dinosaurs (Listen and Repeat)
TTITLE12=Red Planet (Pages 01 to 11)
TTITLE13=Red Planet (Pages 12 to 21)
TTITLE14=Red Planet (Pages 22 to 32)
TTITLE15=Red Planet (Listen and Repeat)
TTITLE16=Lost in the Jungle (Pages 01 to 13)
TTITLE17=Lost in the Jungle (Pages 14 to 23)
TTITLE18=Lost in the Jungle (Pages 24 to 32)
TTITLE19=Lost in the Jungle (Listen and Repeat)
TTITLE20=The Lost Key (Pages 01 to 09)
TTITLE21=The Lost Key (Pages 10 to 21)
TTITLE22=The Lost Key (Pages 22 to 32)
TTITLE23=The Lost Key (Listen and Repeat)
EXTD=
EXTT0=
EXTT1=
EXTT2=
EXTT3=
EXTT4=
EXTT5=
EXTT6=
EXTT7=
EXTT8=
EXTT9=
EXTT10=
EXTT11=
EXTT12=
EXTT13=
EXTT14=
EXTT15=
EXTT16=
EXTT17=
EXTT18=
EXTT19=
EXTT20=
EXTT21=
EXTT22=
EXTT23=
PLAYORDER=
